<svg xmlns="http://www.w3.org/2000/svg" viewBox="0 0 24 24" width="24" height="24" fill="#f1f1f1" aria-hidden="true">
  <path d="M12 2a10 10 0 1 0 0 20 10 10 0 0 0 0-20Zm6.92 6h-2.95a15.7 15.7 0 0 0-1.38-3.56A8.05 8.05 0 0 1 18.92 8ZM12 4c.83 1.2 1.47 2.53 1.87 4h-3.74A13.7 13.7 0 0 1 12 4ZM4.26 14a7.8 7.8 0 0 1 0-4h3.4a16.5 16.5 0 0 0 0 4h-3.4Zm.82 2h2.95c.3 1.27.77 2.47 1.38 3.56A8.05 8.05 0 0 1 5.08 16Zm2.95-8H5.08a8.05 8.05 0 0 1 4.33-3.56A15.7 15.7 0 0 0 8.03 8ZM12 20a13.7 13.7 0 0 1-1.87-4h3.74A13.7 13.7 0 0 1 12 20Zm2.3-6H9.7a14.5 14.5 0 0 1 0-4h4.6a14.5 14.5 0 0 1 0 4Zm.29 5.56A15.7 15.7 0 0 0 15.97 16h2.95a8.05 8.05 0 0 1-4.33 3.56ZM16.34 14a16.5 16.5 0 0 0 0-4h3.4a7.8 7.8 0 0 1 0 4h-3.4Z"/>
</svg>
